<?xml version="1.0" encoding="utf-8"?>
<!-- Generator: Adobe Illustrator 21.0.0, SVG Export Plug-In . SVG Version: 6.00 Build 0)  -->
<svg version="1.1" id="Layer_1" xmlns="http://www.w3.org/2000/svg" xmlns:xlink="http://www.w3.org/1999/xlink" x="0px" y="0px"
	 viewBox="0 0 612 171.2" style="enable-background:new 0 0 612 171.2;" xml:space="preserve">
<style type="text/css">
	.st0{fill:#602D6C;}
</style>
<g>
	<path class="st0" d="M102.9,111.6c-4.8-0.5-8.5-1.4-12-4.2c-3.2-2.6-5.7-6.9-7.7-12.4c-4.3-11.9-8.6-26.5-10.7-33.9
		c27.9-9.7,40.8-22.4,40.8-36.4c0-12.9-10.6-21.4-34-18.4C69,7.6,61.4,8.9,53.4,10.5c-30,5.8-41.3,18.8-41.3,32.1
		c0,9,7.9,15.3,17.1,15.3c6.3,0,6.9-3.5,5-4.9c-3.9-3-6.3-5.8-6.3-10.8c0-7.8,5.9-17.9,27.5-22.7c1.4-0.3,2.5-0.5,3.7-0.8
		c-3.6,10.2-10,28.1-15.8,43.4C10.4,75.3,0,93.5,0,106.1c0,9.4,7.4,14.8,16.1,14.8c13.4,0,23.8-8.9,32.2-29
		c3.1-7.3,6.5-15.9,9.7-24.8c2.1,7.8,6,21.5,10.2,32.5c2.4,6.4,4.6,10.9,7.8,14.2c3.9,3.9,9.3,5.9,15.6,5.9c7.5,0,12-2.5,13.1-4.3
		C106.3,113.3,105.5,111.8,102.9,111.6L102.9,111.6z M33.3,87.3c-7.3,15-11.8,21.3-17.5,22.3c-2.5,0.4-4.6-0.8-4.6-4.6
		c0-4.1,4.5-19.6,28.1-32C36.9,79.2,34.8,84.2,33.3,87.3z M62.6,54.9c5.7-15.7,11-30.7,14-39.4c12.5-1.4,18.9,2.4,18.9,11.8
		c0,9.1-7.7,18.1-24.3,24.5C68.1,52.8,65.3,53.9,62.6,54.9L62.6,54.9z M415.2,87.6c-2.5,0-6.3,4.1-12.9,4.1c-4.5,0-6.9-2.9-6.9-8.9
		c0-1.5,0.2-3.1,0.5-4.8h1.7c21.4,0,34.2-12.4,34.2-24.5c0-8.7-6.7-13.1-13.2-13.1c-16,0-35.3,19-38.6,38.4
		c-4.6,7.8-8.4,10.8-10.7,10.7c-2.6-0.1-2.4-3.8,0-10.8c3.7-10.6,9-24.9,13.7-35.9c9.2-21.8,15-33.9,15.8-36.4
		c0.7-2.5-0.6-3-3.2-2.5c-9.3,1.4-14.5,1-18.4,7.5c-6.3,10.4-33.1,52.1-33.1,52.1s7.9-51.6,9.2-56.9c0.6-2.9-0.8-3.7-3.4-3.1
		c-3,0.8-5.6,1.5-9.6,2.8c-3.5,1.2-4.2,2.3-6.7,7.9c-1.3,3-11.5,33.4-18.8,48.7c-7.6,16.3-13.8,25.9-28.2,27
		c-3.9,0.3-4.1,2.3-3.1,4.8c2.2,5.2,7.8,8.3,12.9,8.3c9,0,15.4-6.4,21.5-21.2c5.1-12.3,12.6-33.4,18.2-49.3
		c-4.7,24.7-10.2,57.6-11,66.3c-0.4,5.1,6.4,5.2,9.1,0.2c7.2-13,22.8-39.7,36.8-63.9c-5.7,13.7-12.4,29.9-15.5,39
		c-2.1,6.7-4,11.5-4,17.7c0,7.1,4.9,11.3,10.3,11.3c5.5,0,11.9-2.8,18.6-11.3c2,7.1,7.3,11.5,16.3,11.5c11.8,0,20.4-8.1,20.4-13.1
		C417.6,88.6,416.6,87.6,415.2,87.6L415.2,87.6z M415,51.1c6.7,0,1.5,17.5-15.9,18C403.5,59.8,410.6,51.1,415,51.1z M380.2,20.2
		c-0.1,0.1-0.1,0.2-0.2,0.3C380.1,20.3,380.2,20.3,380.2,20.2z M341,10.6c0-0.1,0-0.2,0.1-0.3C341,10.4,341,10.5,341,10.6z"/>
	<path class="st0" d="M514.4,22.4c6.3-4.5,11-4.8,12.5-6c2.2-1.9-0.8-11.1-9.5-11.1c-13.9,0-21.1,17.4-26.6,32.7
		c-3.6,10-7.6,22.1-10.7,31.9c1.5-21.5,4.1-55.9,4.2-59.8c0.1-2,0-3.1-1-3.5c0.1-0.1,0.1-0.1,0.1-0.2h-0.7c-0.3-0.1-0.7-0.1-1.3-0.1
		c-1.9,0-3.6,0.1-5.4,0.1h-24.1c-35.4,0-32.7,33.2-10.8,33.2c4,0,4.1-3.9,2.2-5c-7.9-4-9.5-18.5,17-18.5h7.2
		c-3.3,11.3-9.5,30.4-17.4,47.3c-8.4,18-13.1,24.7-26.3,28.1c-3.8,1-3.5,3.1-2.4,5.5c1.3,3,6,6.1,11.9,6.1
		c10.4,0,15.9-7.6,21.5-22.9c5.5-14.8,10.1-29.2,13.5-40.4c-1,23.9-1.8,54.6-2,60.2c-0.1,4.2,1.6,4.2,4.9,2.8
		c6.7-2.9,9-3.9,10.8-9.3c5.6-17.2,11-31.5,17.4-47.6C503.2,35.6,509.2,26.1,514.4,22.4z"/>
	<path class="st0" d="M533.8,41.8c-27.9,0-41.5,32.3-41.5,46.2c0,9.9,6.3,16,16.8,16c23.3,0,36.7-31.8,36.7-46.4
		C545.8,47.6,541.2,41.8,533.8,41.8z M513.6,91.1c-10.4,0,3.4-39,12.7-39C535,52.1,524.6,91.1,513.6,91.1z"/>
	<path class="st0" d="M607.3,24.8c-2.3,0-10.5,0.2-22.9,0.6c2-4.9,3.6-8.8,4.7-11.4c0.8-2,0.4-3.2-1.7-3.2c-1.9,0-5.2,0.6-9.1,1.7
		c-5.3,1.4-5.9,2.3-8.8,8.5c-0.6,1.3-1.4,3-2.2,5.1c-12.1,0.4-26.2,1.1-41.7,1.7c-6,0.3-14.6,7.8-7.2,7.8c14.6,0,30.4,0.5,44.8,1
		c-2.2,5.9-5,13.2-8.4,21.8c-4.2,10.8-10.2,23.7-10.2,32.6c0,6.6,4.5,12.3,12.5,12.3c10,0,14-5.8,12.9-9.2c-0.6-1.9-2.4-1.9-6.3-1.9
		c-2.6,0-3.6-1.8-3.6-3.8c0-3.1,1.5-6.3,3.1-10.5c5.6-14.6,11.4-29,16.3-40.8c4,0.1,7.8,0.1,11.3,0.1c8.6,0,11.9-0.2,14.9-2.5
		c2.5-1.9,3.7-3,5.1-4.8C612.4,28.1,613.2,24.8,607.3,24.8L607.3,24.8z M254.5,39c4.6,0,9.2-4.2,10.3-9.4c1.1-5.2-1.7-9.4-6.3-9.4
		s-9.2,4.2-10.3,9.4S249.9,39,254.5,39z"/>
	<path class="st0" d="M274,92.6c-2.2-0.3-2.9-1.8-2.9-4.3c0-3.1,0.8-7.4,2.3-12.3c36.3-17.1,60.2-69.1,33.1-69.1
		c-18,0-40.5,39.9-47.7,67.1c-4,6.5-10.8,16.2-15.6,16.2c-3.7,0-2.8-4.9,0-12.2c6.3-17,15.4-34.4,15.4-34.4s-4.6-1.9-10.8-0.8
		c-4,0.7-5.8,2.8-7.7,6.4c-0.2,0.3-0.5,0.7-0.7,1.4c-11.8,25.3-19.2,39.6-25.9,39.6c-4.7,0-2-5.2,0.6-12.4
		c6.3-17,15.4-34.4,15.4-34.4s-4.6-1.9-10.8-0.8c-3.9,0.6-5.7,2.5-7.5,5.9c-1.3-3.5-3.9-6.9-9.6-6.9c-17.5,0-30.6,22.5-34.3,38.4
		c-3.6,5.5-8.3,11.4-11.8,11.4s-3.5-3.1-0.7-10.3c4.5-11.5,13-31.5,19.8-47.2c17.2,0.4,33.4,0.7,42.7,0.7c8.6,0,11.9-0.2,14.9-2.5
		c2.5-1.9,3.7-3,5.1-4.8c1.5-1.8,2.1-5.1-3.7-5.1c-3.2,0-26.7,0.7-54.7,1.8c2.1-4.8,3.8-8.6,4.8-10.8c0.6-1.4-0.3-2.9-2.4-2.6
		c-3.3,0.3-4.5,0.7-7.9,1.6c-5.3,1.3-6.6,2.9-9.5,9c-0.4,0.8-1,2-1.6,3.5c-11.1,0.4-22.5,1-33.1,1.4c-6,0.3-12.9,7-5.6,7
		c9.2,0,21.7,0.2,34.9,0.5c-2.3,5.2-4.9,11.2-7,16.5c-0.2,0.4-0.5,1-0.7,1.6c-8.9,20.2-22.5,41.5-37.4,41.5c-5.8,0-8.3-3.8-8.3-8.8
		c0-1.9,0.3-3.9,0.7-6c0.5,0,1.2,0.1,1.9,0.1c21.4,0,34-13.1,34-25.2c0-7.7-6.5-12.3-12.9-12.3c-17.6,0-39.1,22.9-39.1,44.1
		c0,11.4,6.1,19,16.5,19c14,0,24.9-8.6,32.5-18c-0.4,2.1-0.6,4.2-0.6,6.3c0,6.6,3.8,11.4,10,11.4c7,0,13-4.2,18.6-11.7
		c1.2,7.4,5.4,11.7,11.7,11.7c7.4,0,13.8-5.6,18.9-12.4c0.3,6.1,2.4,12.4,10.6,12.4c5.7,0,11.7-3.1,18.6-12.8
		c0.2,6.4,2.9,13.1,10.5,13.1c7.4,0,14-5.3,19.9-13.4c0.5,8.1,4.9,12.8,11.1,12.8c6.4,0,11.8-4.1,11.4-8.7
		C279.1,91.4,276.1,92.9,274,92.6z M305.2,18.2c3.9,0-6.8,28.1-26.5,43.7C287.1,41.3,300.5,18.2,305.2,18.2z M124,50.5
		c6.8,0,2.6,18.9-15.4,18.9h-0.2C112.6,59.6,119.5,50.5,124,50.5z M184.4,90.8c-10.2,0,7-38.4,16.7-38.4c3.7,0,5,2.4,5.5,4.5
		C198.7,75.4,192.1,90.8,184.4,90.8z"/>
</g>
<g>
	<path class="st0" d="M135.5,149.6l-1.8,8.9c0,0.1-0.1,0.2-0.2,0.3c-0.1,0.1-0.3,0.2-0.5,0.3c-0.2,0.1-0.5,0.1-0.8,0.1
		c-0.3,0-0.8,0-1.2,0c-0.5,0-0.9,0-1.2,0c-0.3,0-0.6-0.1-0.7-0.1c-0.2-0.1-0.3-0.1-0.4-0.3c-0.1-0.1-0.1-0.2,0-0.3l1.8-8.9
		l-4.1-13.7c-0.1-0.5-0.2-0.8-0.3-1.1c0-0.3,0-0.5,0.2-0.6c0.2-0.1,0.4-0.2,0.8-0.3s0.9-0.1,1.7-0.1c0.5,0,1,0,1.3,0
		s0.6,0.1,0.7,0.1c0.2,0.1,0.3,0.2,0.4,0.3c0.1,0.1,0.1,0.3,0.2,0.5l1.7,6.1c0.2,0.7,0.4,1.4,0.5,2.1c0.1,0.7,0.3,1.3,0.4,2.1h0
		c0.4-0.7,0.7-1.4,1.1-2.1c0.4-0.7,0.8-1.3,1.2-2l4-6.1c0.1-0.2,0.2-0.3,0.3-0.4c0.1-0.1,0.3-0.2,0.5-0.3c0.2-0.1,0.5-0.1,0.8-0.1
		c0.3,0,0.8,0,1.4,0c0.8,0,1.3,0,1.7,0.1c0.4,0,0.7,0.1,0.8,0.3c0.1,0.1,0.1,0.4,0,0.6c-0.1,0.3-0.4,0.6-0.7,1L135.5,149.6z"/>
	<path class="st0" d="M168.2,142.4c0,1.1-0.1,2.4-0.3,3.7s-0.5,2.6-1,3.9c-0.5,1.3-1.1,2.5-1.8,3.7c-0.8,1.2-1.7,2.2-2.7,3.1
		c-1.1,0.9-2.3,1.6-3.8,2.1c-1.5,0.5-3.1,0.8-5,0.8c-1.6,0-3-0.2-4.2-0.5c-1.2-0.3-2.2-0.9-3-1.6c-0.8-0.7-1.4-1.6-1.9-2.7
		c-0.4-1.1-0.6-2.4-0.6-3.9c0-1.2,0.1-2.5,0.3-3.8c0.2-1.3,0.6-2.6,1-3.9c0.5-1.3,1.1-2.5,1.9-3.6s1.7-2.2,2.8-3.1
		c1.1-0.9,2.3-1.6,3.8-2.1c1.4-0.5,3.1-0.8,4.9-0.8c1.6,0,3,0.2,4.2,0.5c1.2,0.4,2.2,0.9,3,1.6c0.8,0.7,1.4,1.7,1.9,2.8
		C168,139.6,168.2,140.9,168.2,142.4z M162.8,142.9c0-0.8-0.1-1.5-0.3-2.2c-0.2-0.6-0.5-1.2-0.8-1.6c-0.4-0.4-0.9-0.8-1.5-1
		c-0.6-0.2-1.4-0.4-2.3-0.4c-1.1,0-2.1,0.2-3,0.7s-1.6,1-2.2,1.7s-1.2,1.5-1.6,2.4c-0.4,0.9-0.8,1.8-1,2.7c-0.3,0.9-0.4,1.8-0.6,2.7
		c-0.1,0.9-0.2,1.7-0.2,2.3c0,0.8,0.1,1.5,0.3,2.2c0.2,0.6,0.5,1.2,0.9,1.6s0.9,0.8,1.5,1c0.6,0.2,1.4,0.3,2.3,0.3
		c1.1,0,2.1-0.2,3-0.6s1.6-1,2.2-1.7c0.6-0.7,1.2-1.5,1.6-2.4c0.4-0.9,0.8-1.8,1-2.7c0.3-0.9,0.4-1.8,0.6-2.7
		C162.8,144.4,162.8,143.6,162.8,142.9z"/>
	<path class="st0" d="M192,149.9c-0.3,1.6-0.8,3-1.5,4.2c-0.7,1.2-1.5,2.2-2.6,3c-1,0.8-2.2,1.4-3.5,1.8c-1.3,0.4-2.8,0.6-4.4,0.6
		c-1.7,0-3.2-0.2-4.4-0.6c-1.2-0.4-2.2-1-2.9-1.9c-0.7-0.8-1.2-1.9-1.4-3.1s-0.1-2.7,0.2-4.3l3-14.9c0-0.1,0.1-0.2,0.2-0.4
		c0.1-0.1,0.3-0.2,0.5-0.3c0.2-0.1,0.5-0.1,0.8-0.2c0.3,0,0.7-0.1,1.3-0.1c0.5,0,0.9,0,1.2,0.1s0.6,0.1,0.8,0.2
		c0.2,0.1,0.3,0.1,0.4,0.3c0.1,0.1,0.1,0.2,0,0.4l-3,14.9c-0.2,1-0.3,1.9-0.2,2.6s0.3,1.3,0.7,1.8s0.8,0.8,1.4,1.1
		c0.6,0.2,1.3,0.3,2.1,0.3c0.8,0,1.6-0.1,2.3-0.4s1.3-0.6,1.9-1.1c0.5-0.5,1-1.1,1.4-1.8c0.4-0.7,0.7-1.5,0.8-2.4l3-15.1
		c0-0.1,0.1-0.2,0.2-0.4c0.1-0.1,0.2-0.2,0.4-0.3c0.2-0.1,0.5-0.1,0.8-0.2s0.8-0.1,1.2-0.1c0.5,0,0.9,0,1.2,0.1
		c0.3,0,0.6,0.1,0.7,0.2c0.2,0.1,0.3,0.1,0.4,0.3c0.1,0.1,0.1,0.2,0,0.4L192,149.9z"/>
	<path class="st0" d="M216.8,139.5c0,0.8-0.1,1.7-0.3,2.5c-0.2,0.8-0.6,1.6-1.1,2.3c-0.5,0.7-1.1,1.4-1.9,2
		c-0.8,0.6-1.7,1.1-2.9,1.4c0.6,0.2,1.1,0.7,1.6,1.5s0.8,1.7,1,3l1,5.1c0.1,0.3,0.1,0.5,0.1,0.8s0,0.4,0,0.6c0,0.1,0,0.2-0.1,0.3
		c-0.1,0.1-0.2,0.2-0.5,0.2c-0.2,0.1-0.5,0.1-0.9,0.1c-0.4,0-0.9,0-1.4,0c-0.5,0-1,0-1.3,0c-0.3,0-0.6-0.1-0.8-0.2
		c-0.2-0.1-0.3-0.2-0.4-0.3c-0.1-0.1-0.1-0.3-0.1-0.4l-1-5.6c-0.1-0.6-0.2-1.2-0.4-1.7c-0.2-0.5-0.4-0.9-0.7-1.2
		c-0.3-0.3-0.6-0.6-1-0.7s-0.9-0.2-1.4-0.2h-1.6l-1.9,9.6c0,0.1-0.1,0.2-0.2,0.3c-0.1,0.1-0.3,0.2-0.5,0.3c-0.2,0.1-0.5,0.1-0.8,0.1
		c-0.3,0-0.8,0-1.2,0c-0.5,0-0.9,0-1.2,0c-0.3,0-0.6-0.1-0.7-0.1c-0.2-0.1-0.3-0.1-0.4-0.2c-0.1-0.1-0.1-0.2,0-0.4l4.6-22.9
		c0.1-0.6,0.3-1,0.7-1.2c0.4-0.3,0.8-0.4,1.2-0.4h6.8c1.2,0,2.2,0.1,3.2,0.3c1,0.2,1.8,0.6,2.4,1c0.7,0.5,1.2,1,1.6,1.7
		C216.6,137.7,216.8,138.6,216.8,139.5z M211.3,140.4c0-0.4-0.1-0.7-0.2-1c-0.1-0.3-0.3-0.6-0.6-0.8c-0.3-0.2-0.6-0.4-1.1-0.5
		c-0.4-0.1-1-0.2-1.6-0.2H205l-1.4,7.1h2.4c1,0,1.8-0.1,2.5-0.4c0.7-0.3,1.2-0.6,1.6-1.1c0.4-0.4,0.7-0.9,0.9-1.5
		S211.3,141,211.3,140.4z"/>
	<path class="st0" d="M235.4,135.9c0,0.1,0,0.3,0,0.4c0,0.2,0,0.4-0.1,0.6c0,0.2-0.1,0.5-0.1,0.7c-0.1,0.2-0.1,0.5-0.2,0.7
		s-0.2,0.4-0.3,0.5s-0.2,0.2-0.3,0.2c-0.2,0-0.4-0.1-0.7-0.2c-0.3-0.2-0.6-0.3-1-0.5c-0.4-0.2-0.9-0.4-1.4-0.5
		c-0.5-0.2-1.1-0.2-1.8-0.2c-0.7,0-1.3,0.1-1.8,0.3s-0.9,0.5-1.2,0.8c-0.3,0.3-0.5,0.7-0.7,1.1c-0.1,0.4-0.2,0.8-0.2,1.2
		c0,0.5,0.1,0.9,0.4,1.2s0.5,0.7,0.9,1c0.4,0.3,0.8,0.6,1.3,0.9c0.5,0.3,1,0.6,1.5,0.9c0.5,0.3,1,0.7,1.5,1c0.5,0.4,0.9,0.8,1.3,1.3
		c0.4,0.5,0.7,1,0.9,1.7s0.4,1.4,0.4,2.2c0,1.2-0.2,2.4-0.7,3.4c-0.5,1-1.2,2-2.1,2.7c-0.9,0.8-2,1.4-3.3,1.8s-2.7,0.7-4.3,0.7
		c-0.8,0-1.6-0.1-2.3-0.2c-0.7-0.1-1.3-0.3-1.9-0.5s-1-0.4-1.4-0.6c-0.4-0.2-0.7-0.4-0.8-0.6s-0.3-0.5-0.3-0.9c0-0.1,0-0.3,0-0.5
		c0-0.2,0.1-0.4,0.1-0.7c0-0.2,0.1-0.5,0.2-0.7c0.1-0.3,0.1-0.5,0.2-0.7c0.1-0.2,0.2-0.4,0.3-0.5s0.2-0.2,0.4-0.2
		c0.2,0,0.5,0.1,0.8,0.3c0.3,0.2,0.7,0.4,1.1,0.7c0.5,0.2,1,0.5,1.6,0.7c0.6,0.2,1.4,0.3,2.2,0.3c0.8,0,1.4-0.1,2-0.3
		s1.1-0.5,1.4-0.8c0.4-0.3,0.7-0.7,0.9-1.2c0.2-0.4,0.3-0.9,0.3-1.5c0-0.5-0.1-0.9-0.4-1.3s-0.5-0.7-0.9-1c-0.4-0.3-0.8-0.6-1.3-0.9
		c-0.5-0.3-1-0.6-1.5-0.9s-1-0.6-1.5-1c-0.5-0.4-0.9-0.8-1.3-1.3c-0.4-0.5-0.7-1-0.9-1.7c-0.2-0.6-0.4-1.4-0.4-2.2
		c0-1.2,0.2-2.2,0.7-3.2c0.5-1,1.1-1.8,1.9-2.5c0.8-0.7,1.8-1.3,3-1.7s2.4-0.6,3.8-0.6c0.6,0,1.3,0,1.8,0.1c0.6,0.1,1.1,0.2,1.6,0.4
		c0.5,0.1,0.9,0.3,1.2,0.5c0.3,0.2,0.6,0.3,0.7,0.5c0.1,0.1,0.2,0.3,0.3,0.4S235.4,135.7,235.4,135.9z"/>
	<path class="st0" d="M264.1,134.8c0,0.1,0,0.2,0,0.4s-0.1,0.4-0.1,0.7s-0.1,0.5-0.2,0.8s-0.1,0.5-0.2,0.7c-0.1,0.2-0.2,0.4-0.3,0.6
		c-0.1,0.1-0.3,0.2-0.4,0.2h-8.2l-1.4,6.8h7.7c0.2,0,0.3,0.1,0.4,0.2c0.1,0.1,0.1,0.3,0.1,0.6c0,0.1,0,0.2,0,0.4
		c0,0.2-0.1,0.4-0.1,0.7c0,0.2-0.1,0.5-0.2,0.8s-0.2,0.5-0.3,0.7s-0.2,0.4-0.3,0.5c-0.1,0.1-0.3,0.2-0.4,0.2h-7.7l-1.9,9.4
		c0,0.1-0.1,0.3-0.2,0.4c-0.1,0.1-0.3,0.2-0.5,0.3c-0.2,0.1-0.5,0.1-0.8,0.2c-0.3,0-0.8,0.1-1.2,0.1c-0.5,0-0.9,0-1.2-0.1
		c-0.3,0-0.6-0.1-0.7-0.2c-0.2-0.1-0.3-0.1-0.4-0.3c-0.1-0.1-0.1-0.2,0-0.4l4.6-22.8c0.1-0.6,0.4-1,0.7-1.2s0.7-0.4,1.2-0.4h11.8
		c0.2,0,0.4,0.1,0.4,0.2C264,134.4,264.1,134.6,264.1,134.8z"/>
	<path class="st0" d="M288.4,142.4c0,1.1-0.1,2.4-0.3,3.7s-0.5,2.6-1,3.9c-0.5,1.3-1.1,2.5-1.8,3.7c-0.8,1.2-1.7,2.2-2.7,3.1
		c-1.1,0.9-2.3,1.6-3.8,2.1c-1.5,0.5-3.1,0.8-5,0.8c-1.6,0-3-0.2-4.2-0.5c-1.2-0.3-2.2-0.9-3-1.6c-0.8-0.7-1.4-1.6-1.9-2.7
		c-0.4-1.1-0.6-2.4-0.6-3.9c0-1.2,0.1-2.5,0.3-3.8c0.2-1.3,0.6-2.6,1-3.9c0.5-1.3,1.1-2.5,1.9-3.6s1.7-2.2,2.8-3.1
		c1.1-0.9,2.3-1.6,3.8-2.1c1.4-0.5,3.1-0.8,4.9-0.8c1.6,0,3,0.2,4.2,0.5c1.2,0.4,2.2,0.9,3,1.6c0.8,0.7,1.4,1.7,1.9,2.8
		C288.2,139.6,288.4,140.9,288.4,142.4z M283,142.9c0-0.8-0.1-1.5-0.3-2.2c-0.2-0.6-0.5-1.2-0.8-1.6c-0.4-0.4-0.9-0.8-1.5-1
		c-0.6-0.2-1.4-0.4-2.3-0.4c-1.1,0-2.1,0.2-3,0.7s-1.6,1-2.2,1.7s-1.2,1.5-1.6,2.4c-0.4,0.9-0.8,1.8-1,2.7c-0.3,0.9-0.4,1.8-0.6,2.7
		c-0.1,0.9-0.2,1.7-0.2,2.3c0,0.8,0.1,1.5,0.3,2.2c0.2,0.6,0.5,1.2,0.9,1.6s0.9,0.8,1.5,1c0.6,0.2,1.4,0.3,2.3,0.3
		c1.1,0,2.1-0.2,3-0.6s1.6-1,2.2-1.7c0.6-0.7,1.2-1.5,1.6-2.4c0.4-0.9,0.8-1.8,1-2.7c0.3-0.9,0.4-1.8,0.6-2.7
		C283,144.4,283,143.6,283,142.9z"/>
	<path class="st0" d="M311,139.5c0,0.8-0.1,1.7-0.3,2.5c-0.2,0.8-0.6,1.6-1.1,2.3c-0.5,0.7-1.1,1.4-1.9,2c-0.8,0.6-1.7,1.1-2.9,1.4
		c0.6,0.2,1.1,0.7,1.6,1.5s0.8,1.7,1,3l1,5.1c0.1,0.3,0.1,0.5,0.1,0.8c0,0.2,0,0.4,0,0.6c0,0.1,0,0.2-0.1,0.3
		c-0.1,0.1-0.2,0.2-0.5,0.2c-0.2,0.1-0.5,0.1-0.9,0.1c-0.4,0-0.9,0-1.4,0c-0.5,0-1,0-1.3,0c-0.3,0-0.6-0.1-0.8-0.2
		c-0.2-0.1-0.3-0.2-0.4-0.3c-0.1-0.1-0.1-0.3-0.1-0.4l-1-5.6c-0.1-0.6-0.2-1.2-0.4-1.7c-0.2-0.5-0.4-0.9-0.7-1.2
		c-0.3-0.3-0.6-0.6-1-0.7s-0.9-0.2-1.4-0.2H297l-1.9,9.6c0,0.1-0.1,0.2-0.2,0.3c-0.1,0.1-0.3,0.2-0.5,0.3c-0.2,0.1-0.5,0.1-0.8,0.1
		c-0.3,0-0.8,0-1.2,0c-0.5,0-0.9,0-1.2,0c-0.3,0-0.6-0.1-0.7-0.1c-0.2-0.1-0.3-0.1-0.4-0.2c-0.1-0.1-0.1-0.2,0-0.4l4.6-22.9
		c0.1-0.6,0.3-1,0.7-1.2c0.4-0.3,0.8-0.4,1.2-0.4h6.8c1.2,0,2.2,0.1,3.2,0.3c1,0.2,1.8,0.6,2.4,1c0.7,0.5,1.2,1,1.6,1.7
		C310.8,137.7,311,138.6,311,139.5z M305.5,140.4c0-0.4-0.1-0.7-0.2-1c-0.1-0.3-0.3-0.6-0.6-0.8c-0.3-0.2-0.6-0.4-1.1-0.5
		c-0.4-0.1-1-0.2-1.6-0.2h-2.9l-1.4,7.1h2.4c1,0,1.8-0.1,2.5-0.4c0.7-0.3,1.2-0.6,1.6-1.1c0.4-0.4,0.7-0.9,0.9-1.5
		S305.5,141,305.5,140.4z"/>
	<path class="st0" d="M342.8,134.8c0,0.1,0,0.2,0,0.4s-0.1,0.4-0.1,0.7c0,0.2-0.1,0.5-0.2,0.8s-0.2,0.5-0.3,0.7
		c-0.1,0.2-0.2,0.4-0.3,0.5c-0.1,0.1-0.3,0.2-0.4,0.2h-6.3l-4,20.3c0,0.1-0.1,0.2-0.2,0.3c-0.1,0.1-0.3,0.2-0.5,0.3
		c-0.2,0.1-0.5,0.1-0.8,0.2c-0.3,0-0.7,0.1-1.3,0.1c-0.5,0-0.9,0-1.2-0.1c-0.3,0-0.6-0.1-0.7-0.2c-0.2-0.1-0.3-0.1-0.4-0.3
		c-0.1-0.1-0.1-0.2,0-0.3l4-20.3h-6.3c-0.2,0-0.3-0.1-0.4-0.2s-0.1-0.3-0.1-0.6c0-0.1,0-0.3,0-0.5s0.1-0.4,0.1-0.7
		c0-0.3,0.1-0.5,0.2-0.8s0.2-0.5,0.3-0.7s0.2-0.4,0.4-0.5c0.1-0.1,0.3-0.2,0.4-0.2h17.7c0.2,0,0.3,0.1,0.4,0.2
		C342.8,134.4,342.8,134.6,342.8,134.8z"/>
	<path class="st0" d="M360.8,158.5c0,0.1-0.1,0.2-0.2,0.3c-0.1,0.1-0.3,0.2-0.5,0.3c-0.2,0.1-0.5,0.1-0.8,0.1c-0.3,0-0.8,0-1.2,0
		c-0.5,0-0.9,0-1.2,0c-0.3,0-0.6-0.1-0.7-0.1c-0.2-0.1-0.3-0.1-0.4-0.3c-0.1-0.1-0.1-0.2,0-0.3l2-10.2h-9.4l-2,10.2
		c0,0.1-0.1,0.2-0.2,0.3c-0.1,0.1-0.3,0.2-0.5,0.3c-0.2,0.1-0.5,0.1-0.8,0.1c-0.3,0-0.7,0-1.2,0c-0.5,0-0.9,0-1.2,0
		c-0.3,0-0.6-0.1-0.7-0.1c-0.2-0.1-0.3-0.1-0.4-0.3c-0.1-0.1-0.1-0.2,0-0.3l4.8-23.8c0-0.1,0.1-0.2,0.2-0.4c0.1-0.1,0.3-0.2,0.5-0.3
		c0.2-0.1,0.5-0.1,0.8-0.1c0.3,0,0.8,0,1.2,0c0.5,0,0.9,0,1.2,0c0.3,0,0.6,0.1,0.8,0.1c0.2,0.1,0.3,0.1,0.4,0.3
		c0.1,0.1,0.1,0.2,0,0.4l-1.8,9.3h9.4l1.8-9.3c0-0.1,0.1-0.2,0.2-0.4c0.1-0.1,0.3-0.2,0.5-0.3c0.2-0.1,0.5-0.1,0.8-0.1
		c0.3,0,0.8,0,1.2,0c0.5,0,0.9,0,1.2,0s0.6,0.1,0.8,0.1c0.2,0.1,0.3,0.1,0.4,0.3c0.1,0.1,0.1,0.2,0,0.4L360.8,158.5z"/>
	<path class="st0" d="M385.7,134.7c0,0.1,0,0.2,0,0.4s0,0.4-0.1,0.7c0,0.2-0.1,0.5-0.2,0.7c-0.1,0.3-0.1,0.5-0.2,0.7
		c-0.1,0.2-0.2,0.4-0.3,0.5c-0.1,0.1-0.3,0.2-0.4,0.2h-9l-1.2,6.1h7.6c0.2,0,0.3,0.1,0.4,0.2c0.1,0.1,0.1,0.3,0.1,0.5
		c0,0.1,0,0.2,0,0.4c0,0.2,0,0.4-0.1,0.6c0,0.2-0.1,0.5-0.2,0.7c-0.1,0.2-0.1,0.5-0.2,0.7c-0.1,0.2-0.2,0.4-0.3,0.5
		s-0.3,0.2-0.4,0.2h-7.6l-1.4,7.1h9.1c0.2,0,0.3,0.1,0.3,0.2c0.1,0.1,0.1,0.3,0.1,0.6c0,0.1,0,0.2,0,0.4s0,0.4-0.1,0.7
		c0,0.2-0.1,0.5-0.2,0.7c-0.1,0.2-0.1,0.5-0.2,0.7s-0.2,0.4-0.3,0.5s-0.3,0.2-0.4,0.2h-12.6c-0.2,0-0.4,0-0.6-0.1
		c-0.2-0.1-0.3-0.2-0.4-0.3c-0.1-0.1-0.2-0.3-0.2-0.5s0-0.4,0-0.7l4.4-21.9c0.1-0.6,0.4-1,0.7-1.2c0.4-0.3,0.7-0.4,1.2-0.4h12.5
		C385.6,134,385.7,134.3,385.7,134.7z"/>
	<path class="st0" d="M412.3,135.9c0,0.1,0,0.3,0,0.4s0,0.4-0.1,0.6c0,0.2-0.1,0.5-0.1,0.7c-0.1,0.2-0.1,0.5-0.2,0.7
		c-0.1,0.2-0.2,0.4-0.3,0.5c-0.1,0.1-0.2,0.2-0.3,0.2c-0.2,0-0.4-0.1-0.7-0.2s-0.6-0.3-1-0.5c-0.4-0.2-0.9-0.4-1.4-0.5
		c-0.5-0.2-1.1-0.2-1.8-0.2c-0.7,0-1.3,0.1-1.8,0.3s-0.9,0.5-1.2,0.8c-0.3,0.3-0.5,0.7-0.7,1.1c-0.1,0.4-0.2,0.8-0.2,1.2
		c0,0.5,0.1,0.9,0.4,1.2s0.5,0.7,0.9,1c0.4,0.3,0.8,0.6,1.3,0.9c0.5,0.3,1,0.6,1.5,0.9c0.5,0.3,1,0.7,1.5,1c0.5,0.4,0.9,0.8,1.3,1.3
		c0.4,0.5,0.7,1,0.9,1.7c0.2,0.6,0.4,1.4,0.4,2.2c0,1.2-0.2,2.4-0.7,3.4s-1.2,2-2.1,2.7c-0.9,0.8-2,1.4-3.3,1.8
		c-1.3,0.4-2.7,0.7-4.3,0.7c-0.8,0-1.6-0.1-2.3-0.2c-0.7-0.1-1.3-0.3-1.9-0.5c-0.6-0.2-1-0.4-1.4-0.6c-0.4-0.2-0.7-0.4-0.8-0.6
		s-0.3-0.5-0.3-0.9c0-0.1,0-0.3,0-0.5c0-0.2,0.1-0.4,0.1-0.7c0-0.2,0.1-0.5,0.2-0.7c0.1-0.3,0.1-0.5,0.2-0.7s0.2-0.4,0.3-0.5
		c0.1-0.1,0.2-0.2,0.4-0.2c0.2,0,0.5,0.1,0.8,0.3c0.3,0.2,0.7,0.4,1.1,0.7s1,0.5,1.6,0.7c0.6,0.2,1.4,0.3,2.2,0.3
		c0.8,0,1.4-0.1,2-0.3s1.1-0.5,1.4-0.8c0.4-0.3,0.7-0.7,0.9-1.2s0.3-0.9,0.3-1.5c0-0.5-0.1-0.9-0.4-1.3c-0.2-0.4-0.5-0.7-0.9-1
		s-0.8-0.6-1.3-0.9c-0.5-0.3-1-0.6-1.5-0.9c-0.5-0.3-1-0.6-1.5-1c-0.5-0.4-0.9-0.8-1.3-1.3c-0.4-0.5-0.7-1-0.9-1.7
		c-0.2-0.6-0.4-1.4-0.4-2.2c0-1.2,0.2-2.2,0.7-3.2c0.5-1,1.1-1.8,1.9-2.5c0.8-0.7,1.8-1.3,3-1.7s2.4-0.6,3.8-0.6
		c0.6,0,1.3,0,1.8,0.1c0.6,0.1,1.1,0.2,1.6,0.4c0.5,0.1,0.9,0.3,1.2,0.5c0.3,0.2,0.6,0.3,0.7,0.5s0.2,0.3,0.3,0.4
		S412.3,135.7,412.3,135.9z"/>
	<path class="st0" d="M433.9,157.3c0.1,0.5,0.1,0.8,0.1,1.1s-0.1,0.5-0.3,0.6c-0.2,0.1-0.5,0.2-0.9,0.3c-0.4,0-1,0-1.7,0
		c-0.5,0-0.9,0-1.2,0c-0.3,0-0.6-0.1-0.7-0.1s-0.3-0.1-0.3-0.2c-0.1-0.1-0.1-0.2-0.1-0.4l-0.7-5.1h-9.5l-2.6,4.9
		c-0.1,0.2-0.2,0.3-0.3,0.5c-0.1,0.1-0.3,0.2-0.5,0.3c-0.2,0.1-0.5,0.1-0.9,0.1c-0.4,0-0.8,0-1.4,0c-0.6,0-1.1,0-1.4-0.1
		c-0.3,0-0.6-0.1-0.7-0.3c-0.1-0.1-0.1-0.4,0-0.6c0.1-0.3,0.2-0.6,0.5-1.1l12.2-22.3c0.1-0.2,0.3-0.4,0.4-0.5
		c0.1-0.1,0.3-0.2,0.6-0.3c0.2-0.1,0.6-0.1,1-0.1c0.4,0,0.9,0,1.6,0c0.8,0,1.4,0,1.8,0c0.4,0,0.8,0.1,1,0.1c0.2,0.1,0.4,0.2,0.5,0.3
		c0.1,0.1,0.1,0.3,0.2,0.6L433.9,157.3z M426.2,138.8L426.2,138.8l-5.6,10.7h7.1L426.2,138.8z"/>
	<path class="st0" d="M447,158.3c-0.1,0.2-0.2,0.4-0.4,0.5c-0.1,0.1-0.3,0.2-0.6,0.3c-0.2,0.1-0.6,0.1-1,0.1c-0.4,0-0.9,0-1.6,0
		c-0.8,0-1.4,0-1.8,0s-0.8-0.1-1-0.1s-0.4-0.2-0.5-0.3c-0.1-0.1-0.1-0.3-0.2-0.6l-3.1-22.7c0-0.4-0.1-0.6,0-0.8
		c0-0.2,0.1-0.4,0.3-0.5c0.2-0.1,0.4-0.2,0.8-0.2c0.4,0,0.9,0,1.5,0c0.6,0,1.1,0,1.5,0c0.4,0,0.6,0.1,0.8,0.1
		c0.2,0.1,0.3,0.2,0.4,0.3c0.1,0.1,0.1,0.3,0.1,0.5l2.1,19.4h0l9.8-19.5c0.1-0.2,0.2-0.3,0.3-0.5c0.1-0.1,0.3-0.2,0.5-0.3
		c0.2-0.1,0.5-0.1,0.9-0.1c0.4,0,0.8,0,1.4,0c0.6,0,1.1,0,1.5,0.1c0.3,0,0.6,0.1,0.7,0.3c0.1,0.1,0.1,0.4,0,0.6
		c-0.1,0.3-0.3,0.7-0.5,1.1L447,158.3z"/>
	<path class="st0" d="M463.1,158.5c0,0.1-0.1,0.2-0.2,0.3c-0.1,0.1-0.3,0.2-0.5,0.3c-0.2,0.1-0.5,0.1-0.8,0.1c-0.3,0-0.8,0-1.2,0
		c-0.5,0-0.9,0-1.2,0c-0.3,0-0.6-0.1-0.7-0.1c-0.2-0.1-0.3-0.1-0.4-0.3c-0.1-0.1-0.1-0.2,0-0.3l4.8-23.8c0-0.1,0.1-0.2,0.2-0.4
		c0.1-0.1,0.3-0.2,0.5-0.3c0.2-0.1,0.5-0.1,0.8-0.1c0.3,0,0.7,0,1.2,0c0.5,0,0.9,0,1.2,0c0.3,0,0.6,0.1,0.8,0.1
		c0.2,0.1,0.3,0.1,0.4,0.3c0.1,0.1,0.1,0.2,0,0.4L463.1,158.5z"/>
	<path class="st0" d="M489.5,157.4c-0.1,0.3-0.2,0.6-0.3,0.8c-0.1,0.2-0.3,0.4-0.5,0.6c-0.2,0.2-0.4,0.3-0.7,0.3
		c-0.2,0.1-0.5,0.1-0.7,0.1h-2.2c-0.5,0-0.8,0-1.1-0.1c-0.3-0.1-0.6-0.3-0.8-0.5s-0.4-0.6-0.6-1c-0.2-0.4-0.3-0.9-0.5-1.5l-3.7-11.2
		c-0.3-0.9-0.5-1.7-0.8-2.6c-0.2-0.9-0.5-1.8-0.7-2.6h0c-0.1,1-0.3,2-0.4,3c-0.2,1-0.4,2-0.6,3l-2.6,12.9c0,0.1-0.1,0.2-0.2,0.3
		c-0.1,0.1-0.2,0.2-0.4,0.3c-0.2,0.1-0.4,0.1-0.7,0.2c-0.3,0-0.7,0.1-1.1,0.1s-0.8,0-1.1-0.1s-0.5-0.1-0.7-0.2
		c-0.2-0.1-0.3-0.1-0.3-0.3c0-0.1,0-0.2,0-0.3l4.5-22.6c0.1-0.6,0.4-1.1,0.8-1.4s0.9-0.5,1.4-0.5h2.7c0.4,0,0.8,0,1.1,0.1
		s0.6,0.3,0.8,0.5s0.4,0.5,0.6,0.8s0.3,0.8,0.5,1.2l3.8,11.3c0.2,0.7,0.5,1.4,0.7,2.2c0.2,0.7,0.4,1.4,0.6,2.1h0
		c0.1-0.9,0.3-1.9,0.5-2.9c0.2-1,0.4-2,0.5-2.9l2.4-11.9c0-0.1,0.1-0.2,0.2-0.3c0.1-0.1,0.2-0.2,0.4-0.2c0.2-0.1,0.4-0.1,0.7-0.1
		c0.3,0,0.7,0,1.1,0c0.5,0,0.8,0,1.1,0c0.3,0,0.5,0.1,0.7,0.1c0.2,0.1,0.3,0.1,0.3,0.2c0.1,0.1,0.1,0.2,0,0.3L489.5,157.4z"/>
	<path class="st0" d="M519.2,136.7c0,0.1,0,0.3,0,0.5s-0.1,0.4-0.1,0.7c0,0.2-0.1,0.5-0.2,0.7c-0.1,0.2-0.1,0.5-0.2,0.7
		c-0.1,0.2-0.2,0.4-0.3,0.5s-0.2,0.2-0.3,0.2c-0.2,0-0.5-0.1-0.8-0.3c-0.4-0.2-0.8-0.5-1.4-0.7s-1.2-0.5-2-0.7
		c-0.8-0.2-1.8-0.3-2.9-0.3s-2.1,0.2-3,0.5c-0.9,0.3-1.8,0.8-2.5,1.3c-0.8,0.6-1.4,1.2-2,1.9c-0.6,0.7-1.1,1.5-1.5,2.4
		c-0.4,0.9-0.7,1.7-0.9,2.7s-0.3,1.8-0.3,2.7c0,1,0.1,1.9,0.4,2.6c0.3,0.8,0.7,1.4,1.2,1.9c0.5,0.5,1.2,0.9,2,1.1
		c0.8,0.3,1.6,0.4,2.6,0.4c0.6,0,1.3-0.1,1.9-0.2c0.6-0.1,1.2-0.3,1.7-0.6l1.2-5.8H507c-0.2,0-0.3-0.1-0.4-0.2
		c-0.1-0.1-0.1-0.3-0.1-0.6c0-0.1,0-0.3,0-0.5c0-0.2,0.1-0.4,0.1-0.7c0-0.2,0.1-0.5,0.2-0.7c0.1-0.2,0.1-0.4,0.2-0.6
		s0.2-0.3,0.3-0.4c0.1-0.1,0.2-0.2,0.4-0.2h8.5c0.4,0,0.7,0.1,0.9,0.4s0.2,0.7,0.1,1.2l-2,10.1c-0.1,0.2-0.1,0.5-0.2,0.6
		c-0.1,0.2-0.2,0.3-0.3,0.5c-0.1,0.2-0.5,0.3-1,0.6s-1.2,0.4-1.9,0.6c-0.7,0.2-1.6,0.4-2.5,0.5s-1.9,0.2-2.8,0.2
		c-1.8,0-3.4-0.2-4.8-0.6s-2.5-1-3.5-1.9c-0.9-0.8-1.6-1.8-2.1-3c-0.5-1.2-0.7-2.6-0.7-4.1c0-1.4,0.2-2.8,0.5-4.1s0.8-2.6,1.4-3.8
		c0.6-1.2,1.3-2.3,2.2-3.4s1.9-1.9,3.1-2.7s2.5-1.3,3.9-1.8s3-0.6,4.7-0.6c0.9,0,1.8,0.1,2.7,0.2c0.8,0.1,1.6,0.3,2.3,0.5
		s1.2,0.4,1.7,0.7c0.5,0.2,0.8,0.4,0.9,0.6c0.1,0.1,0.3,0.3,0.3,0.5C519.2,136.2,519.2,136.4,519.2,136.7z"/>
	<path class="st0" d="M532.2,135.4c-0.1,0.3-0.1,0.5-0.2,0.7c-0.1,0.2-0.1,0.3-0.2,0.4c-0.1,0.1-0.1,0.2-0.2,0.2
		c-0.1,0-0.1,0.1-0.2,0.1H529l-1.6,8.1c0,0.1,0,0.1-0.1,0.2s-0.2,0.1-0.3,0.1c-0.1,0-0.3,0.1-0.5,0.1s-0.5,0-0.8,0
		c-0.4,0-0.6,0-0.8,0s-0.4-0.1-0.5-0.1c-0.1,0-0.2-0.1-0.2-0.1c0-0.1-0.1-0.1,0-0.2l1.6-8.1h-2.4c-0.1,0-0.1,0-0.2-0.1
		c-0.1,0-0.1-0.1-0.1-0.2c0-0.1,0-0.2,0-0.4c0-0.2,0-0.4,0.1-0.7s0.1-0.5,0.2-0.7c0.1-0.2,0.1-0.3,0.2-0.4c0.1-0.1,0.1-0.2,0.2-0.2
		c0.1,0,0.1-0.1,0.2-0.1h8.2c0.1,0,0.1,0,0.2,0.1c0.1,0,0.1,0.1,0.1,0.2c0,0.1,0,0.3,0,0.4C532.3,134.9,532.2,135.2,532.2,135.4z
		 M546.3,144.9c0,0.1,0,0.1-0.1,0.2s-0.1,0.1-0.3,0.1c-0.1,0-0.3,0.1-0.5,0.1c-0.2,0-0.4,0-0.7,0c-0.3,0-0.5,0-0.7,0
		c-0.2,0-0.3-0.1-0.4-0.1s-0.2-0.1-0.2-0.1c0-0.1,0-0.1,0-0.2l1.6-8.1h0l-4.3,8.2c-0.1,0.2-0.2,0.3-0.5,0.3
		c-0.3,0.1-0.6,0.1-1.1,0.1c-0.5,0-0.8,0-1-0.1c-0.2-0.1-0.3-0.2-0.4-0.3l-1-8.2h0l-1.6,8.1c0,0.1,0,0.1-0.1,0.2
		c0,0.1-0.1,0.1-0.2,0.1c-0.1,0-0.3,0.1-0.5,0.1s-0.4,0-0.7,0c-0.3,0-0.6,0-0.7,0s-0.3-0.1-0.4-0.1c-0.1,0-0.2-0.1-0.2-0.1
		c0-0.1,0-0.1,0-0.2l2-9.8c0.1-0.3,0.2-0.6,0.4-0.8c0.2-0.2,0.5-0.3,0.8-0.3h2.3c0.3,0,0.5,0,0.7,0.1c0.2,0.1,0.3,0.2,0.5,0.3
		s0.2,0.3,0.3,0.5s0.1,0.5,0.1,0.8l0.7,5.4l3-5.4c0.3-0.5,0.6-1,0.9-1.3s0.8-0.5,1.3-0.5h2.4c0.3,0,0.6,0.1,0.7,0.3
		c0.1,0.2,0.2,0.5,0.1,0.8L546.3,144.9z"/>
</g>
</svg>
